<?xml version="1.0" encoding="utf-8"?>
<!-- Generator: Adobe Illustrator 16.0.0, SVG Export Plug-In . SVG Version: 6.00 Build 0)  -->
<!DOCTYPE svg PUBLIC "-//W3C//DTD SVG 1.1//EN" "http://www.w3.org/Graphics/SVG/1.1/DTD/svg11.dtd">
<svg version="1.1" id="Layer_1" xmlns="http://www.w3.org/2000/svg" xmlns:xlink="http://www.w3.org/1999/xlink" x="0px" y="0px"
	 width="100px" height="150px" viewBox="0 0 100 150" enable-background="new 0 0 100 150" xml:space="preserve">
<circle fill="#1A1833" cx="50" cy="75" r="50"/>
<g>
	<path fill="#312B56" d="M67.25,108.416c-5.166,2.75-11,4.25-17.25,4.25c-20.667,0-37.333-16.832-37.333-37.666
		c0-20.833,16.667-37.667,37.333-37.667c20.666,0,37.334,16.833,37.334,37.667c0,2.416-0.25,4.834-0.668,7.084
		c-2,8.5-7.5,7.166-7.5,7.166s-7.5-3.584-13.082,0.75C62.5,92.75,65,102.084,67.25,108.416z M57.584,98.666
		c0-2.666-2.168-4.832-4.834-4.832c-2.667,0-4.833,2.166-4.833,4.832c0,2.668,2.167,4.834,4.833,4.834
		C55.416,103.5,57.584,101.334,57.584,98.666z"/>
	<circle fill="#7DC7CE" cx="35.833" cy="96.667" r="9.167"/>
	<circle fill="#FFDA93" cx="24.167" cy="75" r="9.166"/>
	<circle fill="#EF53A3" cx="35.833" cy="53.333" r="9.167"/>
	<circle fill="#FAFAFA" cx="62.5" cy="53.333" r="9.167"/>
	<circle fill="#15122B" cx="75.834" cy="75" r="9.166"/>
</g>
</svg>
